<svg xmlns="http://www.w3.org/2000/svg" viewBox="0 0 244 72" role="img" aria-label="Ferrite">
  <defs>
    <linearGradient id="ferrite-dark" x1="14" y1="10" x2="36" y2="56" gradientUnits="userSpaceOnUse">
      <stop stop-color="#3b4450"/>
      <stop offset="1" stop-color="#202936"/>
    </linearGradient>
    <linearGradient id="ferrite-green" x1="38" y1="10" x2="56" y2="56" gradientUnits="userSpaceOnUse">
      <stop stop-color="#67e3ac"/>
      <stop offset="1" stop-color="#25c781"/>
    </linearGradient>
  </defs>

  <rect x="4" y="4" width="64" height="64" rx="14" fill="#05070a"/>

  <path
    d="M16 22.8 34.3 12c2.7-1.6 6.1.4 6.1 3.5v9.8c0 1.8-1 3.5-2.6 4.4l-8.7 5.1h9.6c1.3 0 2.4 1.1 2.4 2.4v4.6c0 1.3-1.1 2.4-2.4 2.4h-9.6v10.3c0 3.1-3.4 5.1-6.1 3.5L16 53.9a8 8 0 0 1-3.9-6.9V29.7a8 8 0 0 1 3.9-6.9Z"
    fill="url(#ferrite-dark)"
  />
  <path
    d="M44.4 13.1 56 20a8 8 0 0 1 3.9 6.9v10.2A8 8 0 0 1 56 44l-11.6 6.9c-2.8 1.7-6.4-.3-6.4-3.6v-2.9c0-2.1 1.2-4 3-5.1a10.8 10.8 0 0 0 0-18.6 5.9 5.9 0 0 1-3-5.1v-2.9c0-3.3 3.6-5.3 6.4-3.6Z"
    fill="url(#ferrite-green)"
  />
  <path
    fill="#f2f7fa"
    d="M95.4 50V29.7h-7v-4.1h7v-2.7c0-4.9 3.2-8 8.2-8 1.7 0 3.2.2 4.5.7v4.3c-1.1-.4-2.2-.6-3.5-.6-2.6 0-4 1.4-4 4v2.3h7.2v4.1h-7.2V50h-5.2Zm27.9.5c-7.3 0-12-5-12-12.7 0-7.6 4.8-12.7 11.7-12.7 6.8 0 11.2 4.8 11.2 12.1v1.9h-17.6c.4 4.5 2.9 7.1 6.9 7.1 3 0 5.1-1.3 6.1-3.6h4.8c-1.4 4.9-5.5 7.9-11.1 7.9Zm-.3-21.2c-3.4 0-5.7 2.3-6.3 6.1h12.4c-.3-3.8-2.6-6.1-6.1-6.1Zm18.2 20.7V25.6h5v4.1c1.3-2.8 3.6-4.4 6.6-4.4.8 0 1.5.1 2.1.3v4.9c-.7-.2-1.5-.3-2.5-.3-3.7 0-6 2.8-6 7.1V50h-5.2Zm18.6 0V25.6h5v4.1c1.3-2.8 3.6-4.4 6.6-4.4.8 0 1.5.1 2.1.3v4.9c-.7-.2-1.5-.3-2.5-.3-3.7 0-6 2.8-6 7.1V50h-5.2Zm19.6 0V25.6h5.2V50h-5.2Zm-.4-31.4a3.1 3.1 0 1 1 6.2 0 3.1 3.1 0 0 1-6.2 0Zm22 31.8c-4.6 0-7.1-2.6-7.1-7.4V29.7h-4.3v-4.1h4.3v-6.1h5.2v6.1h6.3v4.1h-6.3v12.7c0 2.5 1.1 3.6 3.5 3.6 1 0 1.9-.1 2.8-.4v4.1c-1 .4-2.6.7-4.4.7Zm21.5.1c-7.3 0-12-5-12-12.7 0-7.6 4.8-12.7 11.7-12.7 6.8 0 11.2 4.8 11.2 12.1v1.9h-17.6c.4 4.5 2.9 7.1 6.9 7.1 3 0 5.1-1.3 6.1-3.6h4.8c-1.4 4.9-5.5 7.9-11.1 7.9Zm-.3-21.2c-3.4 0-5.7 2.3-6.3 6.1h12.4c-.3-3.8-2.6-6.1-6.1-6.1Z"
  />
</svg>
