<svg xmlns="http://www.w3.org/2000/svg" viewBox="0 0 244 72" role="img" aria-label="Ferrite">
  <defs>
    <linearGradient id="fl-plate" x1="4" y1="4" x2="68" y2="68" gradientUnits="userSpaceOnUse">
      <stop stop-color="#181210"/>
      <stop offset="1" stop-color="#0b0907"/>
    </linearGradient>
    <linearGradient id="fl-ember" x1="20" y1="17" x2="50" y2="55" gradientUnits="userSpaceOnUse">
      <stop stop-color="#ffb27d"/>
      <stop offset="0.55" stop-color="#ff6a38"/>
      <stop offset="1" stop-color="#e8481a"/>
    </linearGradient>
    <filter id="fl-glow" x="-40%" y="-40%" width="180%" height="180%">
      <feGaussianBlur stdDeviation="3"/>
    </filter>
  </defs>

  <rect x="4" y="4" width="64" height="64" rx="12" fill="url(#fl-plate)"/>
  <rect x="4.5" y="4.5" width="63" height="63" rx="11.5" fill="none" stroke="#3a2c21" stroke-width="1"/>

  <!-- corner ticks -->
  <g fill="#ff6a38" opacity="0.55">
    <path d="M11 11h9v1.6h-7.4V20H11Z"/>
    <path d="M61 11v9h-1.6v-7.4H52V11Z"/>
    <path d="M11 61v-9h1.6v7.4H20V61Z"/>
    <path d="M61 61h-9v-1.6h7.4V52H61Z"/>
  </g>

  <!-- forged F monogram -->
  <path d="M20 17h24l6 6v3H29v8h15v9H29v12h-9Z" fill="url(#fl-ember)" filter="url(#fl-glow)" opacity="0.55"/>
  <path d="M20 17h24l6 6v3H29v8h15v9H29v12h-9Z" fill="url(#fl-ember)"/>

  <!-- ember spark -->
  <rect x="44" y="49" width="6" height="6" fill="#ffc29e"/>

  <path
    fill="#f6f1ea"
    d="M95.4 50V29.7h-7v-4.1h7v-2.7c0-4.9 3.2-8 8.2-8 1.7 0 3.2.2 4.5.7v4.3c-1.1-.4-2.2-.6-3.5-.6-2.6 0-4 1.4-4 4v2.3h7.2v4.1h-7.2V50h-5.2Zm27.9.5c-7.3 0-12-5-12-12.7 0-7.6 4.8-12.7 11.7-12.7 6.8 0 11.2 4.8 11.2 12.1v1.9h-17.6c.4 4.5 2.9 7.1 6.9 7.1 3 0 5.1-1.3 6.1-3.6h4.8c-1.4 4.9-5.5 7.9-11.1 7.9Zm-.3-21.2c-3.4 0-5.7 2.3-6.3 6.1h12.4c-.3-3.8-2.6-6.1-6.1-6.1Zm18.2 20.7V25.6h5v4.1c1.3-2.8 3.6-4.4 6.6-4.4.8 0 1.5.1 2.1.3v4.9c-.7-.2-1.5-.3-2.5-.3-3.7 0-6 2.8-6 7.1V50h-5.2Zm18.6 0V25.6h5v4.1c1.3-2.8 3.6-4.4 6.6-4.4.8 0 1.5.1 2.1.3v4.9c-.7-.2-1.5-.3-2.5-.3-3.7 0-6 2.8-6 7.1V50h-5.2Zm19.6 0V25.6h5.2V50h-5.2Zm-.4-31.4a3.1 3.1 0 1 1 6.2 0 3.1 3.1 0 0 1-6.2 0Zm22 31.8c-4.6 0-7.1-2.6-7.1-7.4V29.7h-4.3v-4.1h4.3v-6.1h5.2v6.1h6.3v4.1h-6.3v12.7c0 2.5 1.1 3.6 3.5 3.6 1 0 1.9-.1 2.8-.4v4.1c-1 .4-2.6.7-4.4.7Zm21.5.1c-7.3 0-12-5-12-12.7 0-7.6 4.8-12.7 11.7-12.7 6.8 0 11.2 4.8 11.2 12.1v1.9h-17.6c.4 4.5 2.9 7.1 6.9 7.1 3 0 5.1-1.3 6.1-3.6h4.8c-1.4 4.9-5.5 7.9-11.1 7.9Zm-.3-21.2c-3.4 0-5.7 2.3-6.3 6.1h12.4c-.3-3.8-2.6-6.1-6.1-6.1Z"
  />
</svg>
